<svg width="420" height="250" viewBox="0 0 420 250" fill="none" xmlns="http://www.w3.org/2000/svg" role="img" aria-label="Silhouette de la Guadeloupe et palmiers">
  <g opacity="0.15" fill="#FFFFFF">
    <path d="M82 71L105 53L126 58L139 48L159 57L171 49L194 64L203 83L224 91L215 107L188 111L177 128L150 122L134 136L116 126L99 133L91 114L72 105L80 90L66 80L82 71Z"/>
    <path d="M233 83L247 72L259 77L270 69L284 77L287 92L302 102L293 114L274 111L262 124L248 116L237 122L229 109L217 101L224 90L233 83Z"/>
    <path d="M321 90L328 82L337 87L340 98L333 107L323 103L321 90Z"/>
    <path d="M351 61L358 56L365 60L366 70L359 76L351 72L351 61Z"/>
    <path d="M365 104C386 87 403 89 414 97C395 97 385 105 377 121C389 116 403 119 414 130C395 126 381 130 370 144V198H357V144C346 129 331 126 312 130C323 117 338 114 350 121C342 104 332 96 314 96C327 87 344 87 365 104Z"/>
    <path d="M303 129C318 118 331 119 340 126C327 126 318 132 313 143C322 140 332 143 339 151C326 148 317 151 309 160V198H299V159C291 150 282 147 270 150C278 140 287 138 296 143C291 132 284 126 271 126C280 119 290 119 303 129Z"/>
    <path d="M31 209C95 174 169 174 226 199C270 218 328 217 394 191V250H31V209Z" opacity="0.55"/>
  </g>
  <path d="M23 224C90 193 161 194 220 215C274 235 332 233 410 204" stroke="#005A9C" stroke-width="10" stroke-linecap="round" opacity="0.1"/>
</svg>