<svg width="360" height="240" viewBox="0 0 360 240" fill="none" xmlns="http://www.w3.org/2000/svg" role="img" aria-label="Illustration mobilité et bus">
  <rect width="360" height="240" rx="28" fill="#EAF8FF"/>
  <path d="M0 165C46 147 91 151 134 169C191 193 235 187 282 164C311 150 338 148 360 153V240H0V165Z" fill="#DDF3FF"/>
  <rect x="44" y="66" width="36" height="112" rx="8" fill="#C8E4F2"/>
  <rect x="92" y="38" width="52" height="140" rx="8" fill="#B8D9EB"/>
  <rect x="157" y="88" width="42" height="90" rx="8" fill="#C8E4F2"/>
  <rect x="213" y="54" width="60" height="124" rx="8" fill="#B8D9EB"/>
  <rect x="287" y="82" width="34" height="96" rx="8" fill="#C8E4F2"/>
  <rect x="36" y="92" width="249" height="98" rx="24" fill="#0075C9"/>
  <path d="M58 111C58 102.716 64.7157 96 73 96H250C258.284 96 265 102.716 265 111V148H58V111Z" fill="#0B8DE3"/>
  <rect x="74" y="112" width="44" height="32" rx="8" fill="#DFF7FF"/>
  <rect x="130" y="112" width="44" height="32" rx="8" fill="#DFF7FF"/>
  <rect x="186" y="112" width="44" height="32" rx="8" fill="#DFF7FF"/>
  <rect x="242" y="112" width="15" height="32" rx="6" fill="#DFF7FF"/>
  <rect x="68" y="156" width="196" height="10" rx="5" fill="#FFDA29"/>
  <circle cx="91" cy="191" r="22" fill="#123B5A"/>
  <circle cx="91" cy="191" r="9" fill="#DFF7FF"/>
  <circle cx="231" cy="191" r="22" fill="#123B5A"/>
  <circle cx="231" cy="191" r="9" fill="#DFF7FF"/>
  <path d="M30 213H326" stroke="#117CC4" stroke-width="8" stroke-linecap="round" opacity="0.22"/>
</svg>
